<?xml version="1.0" encoding="UTF-8"?>
<svg version="1.1" viewBox="0 0 1488 828" width="372" height="207" xmlns="http://www.w3.org/2000/svg">
<path transform="translate(0)" d="m0 0h1488v828h-1488z" fill="#0E28F7"/>
<path transform="translate(0)" d="m0 0h240l1 8-1 38-6 4-8 7-7 8-54 54h-2l-2 4-24 24h-2l-1 3-13 13h-2l-2 4-107 107-2 3h-2l-1-2v38l1 8 4-1v-2h3l1-3 4-1 2-4 217-217 1-2h3l-1 48-13 12-7 7h-2l-2 4h-2l-2 4h-2l-2 4h-2l-2 4h-2l-2 4h-2l-2 4h-2l-2 4h-2l-2 4h-2l-2 4-4 4h-2l-2 4h-2l-2 4h-2l-2 4-8 7-116 116-8 9h-2l-2 4-9 9h-2l-2 4-10 11h-3l-1-3v52l5-1v-2h2l2-5 23-23h2l2-4h2l1-3 8-7 7-8 8-7 4-5h2l2-4 12-11 47-47 7-8 4-4h2l2-4 7-8 7-7 6-5 5-5 5-6 8-7 8-8 7-8 31-31h2l2-4h3v46l-6 5-58 58h-2l-2 4-3 3 13 12 57 57 1 3v46l-14 14-7 8-113 113-1 2h-3l-2 4-7 8-78 78h-2l-2 5-2 2h-3l-1-4-1 20 1 24 1 7 3-1 7-8 3-1 2-4h2l1-3 8-7 61-61 8-7 7-8h2v-2l4-4h2l2-4 6-6h2v-2l14-14h2l2-4 4-2 2-4 4-2 2-4 6-6h2l2-4h2v-2h2l2-4 53-53 7-8 7-7h2l-1 49-8 7-15 14-54 54h-2l-2 4-4 4h-2l-2 4h-2l-1 4h-3l-2 4-4 4h-2v2l-4 4-1 2h-3v2l-7 6-2 4h-3l-1 4h-3v2l-7 6-7 8h-2l-2 4h-2v2l-7 6-7 8h-2l-2 4h-2v2l-10 10h-2l-2 4-34 34-7 8-10 10h-2l-1-3v40l1 8 6-2 2-4 10-9 7-8 206-206 3-1v47l-13 12-204 204h-23z" fill="#FBFBFC"/>
<path transform="translate(616,113)" d="m0 0h59v91l30-1 7-12 2-5h2l2-6 4-8h2l2-7 6-10 7-12 6-12 3-5h2l1-4 5-8 1-1h116l3 3 8 16 9 17 5 12 8 16 8 17 7 14 3 5 4 10v2l4-4 7-16 8-15 8-18 8-15 4-9 4-8 3-7 3-6 7-13 1-1h61l-1 5-9 17-20 38-8 16-9 17-8 17-6 10-8 17-5 8-11 23-2 3-1 61h-58l-1-62-7-15v-2h-2l-24-48-13-25-10-19-18-36-8-14v-2l-5 3-7 14-6 9-6 12h-2l-1 4-6 11-6 10-5 10-18 30v5l6 10 6 11 6 10 4 8 8 14 6 12 4 6 7 14 7 12 3 5v3h2l3 5v5h-60l-1-3h-2l-6-11-9-16-3-9h-2l-7-14-6-11-9-17-6-11v-2l-31-1v95l-59 1-1-1v-231z" fill="#FBFBFC"/>
<path transform="translate(674,493)" d="m0 0h90l15 1 10 2 12 5 2 1v2l4 1 5 4 8 11 4 9 3 14v136h-2l-1 12-8 16-9 9-13 7-5 2-9 2h-114l-9-1-14-5-10-7-7-8-4-6-4-13-3-15v-129l5-17 7-13h2l2-4 4-2 1-3h3v-2l12-5 6-2z" fill="#FCFCFC"/>
<path transform="translate(1320,497)" d="m0 0h168v228h-166l-1-1z" fill="#FAFAFC"/>
<path transform="translate(383,496)" d="m0 0h60v90h81v-90h58l1 1v228h-59v-94h-81v94h-60l-1-228z" fill="#FCFCFC"/>
<path transform="translate(445,113)" d="m0 0h121l1 1v45l-1 1-111 1-4 1v2l-5 5-2 5v16l4 10 2 1v2h2v2l69 1 21 2 10 2 9 4v2l6 2 1 3 4 2 3 3v3h2l3 9h2l4 26-1 35-2 13-6 13h-2v3h-2l-2 4-8 7-8 4-5 2-15 3h-50l-3-1-52-2-3-1-38-2-1-2-1-43 42 2 51 1h34l6-2 4-4 1-2v-36h-82l-1-1-20-3-13-5-3-2v-2l-5-2-6-7-6-14-2-8v-5h-2l-1-17v-12l2-23 4-10 5-11 5-5 4-2v-2l12-6h3v-2l13-2z" fill="#FBFBFC"/>
<path transform="translate(859,496)" d="m0 0h58l1 1 1 172 3 6v2l4 2 6 2h60l8-4 2-3h2v-178h59l1 1v178l-3 16-4 11h-2l-2 5-6 7-10 6-10 5-15 2h-101l-10-1-17-7-7-5v-2h-2v-2l-3-1-7-14-3-11-2-15-1-2-1-170z" fill="#FBFBFC"/>
<path transform="translate(1140,497)" d="m0 0h133v43l-1 1-102 1-9 4-4 1-3 9-1 1v16l2 7h2l1 4 5 2 3 1 79 1 10 2 16 8 6 4 5 5v3h2l3 9h2l3 16v40l-2 17-2 6h-2l-2 6-4 6-3 3h-2l-1 3-10 6-10 3-1 1-9 1h-64l-22-1-2-1-44-3-14-1-1-1v-42l3-1 31 2 81 3h10v-2l8-2v-2h2l1-5 1-35h-87l-10-1-9-3-10-4v-2h-3v-2l-5-2-4-4v-3h-2l-4-9v-3h-2l-2-7-2-14v-34l2-14 9-17h2l2-4 3-3h2l1-3 10-5h3v-2z" fill="#FCFCFC"/>
<path transform="translate(4)" d="m0 0h231l-2 4-5 5-7 6-3 4h-2l-2 4-11 12-33 33h-2l-1 3-8 7-110 110-3 4h-2l-2 4-19 19-10 8-7 5h-1l-1-9-1-27v-191z" fill="#0F28F7"/>
<path transform="translate(687,539)" d="m0 0h68l7 3 5 7 1 3 1 18v96l-2 6-3 5-10 5h-66l-8-3-5-6-1-3v-118l4-7 6-5z" fill="#0F29F7"/>
<path transform="translate(235)" d="m0 0h5l1 8-1 38-6 4-8 7-7 8-54 54h-2l-2 4-24 24h-2l-1 3-13 13h-2l-2 4-106 106h-3l-1-9v-35l9-10 10-8 17-17 7-8 115-115 8-7 37-37 6-8 5-5 6-5 4-5z" fill="#FAFAFC"/>
<path transform="translate(239,565)" d="m0 0h1v47l-13 12-204 204h-15l-1-11v-21l3-3h2l2-4 10-9 7-8 206-206z" fill="#FBFBFC"/>
<path transform="translate(238,91)" d="m0 0h3l-1 48-13 12-7 7h-2l-2 4h-2l-2 4h-2l-2 4h-2l-2 4h-2l-2 4h-2l-2 4h-2l-2 4h-2l-2 4h-2l-2 4-4 4h-2l-2 4h-2l-2 4h-2l-2 4-8 7-116 116-8 9h-2l-2 4-9 9h-2l-2 4-8 9-4-1v-45l1-2h2v-2h3l1-3 4-1 2-4 217-217z" fill="#FAFAFC"/>
<path transform="translate(239,470)" d="m0 0h2l-1 49-8 7-15 14-54 54h-2l-2 4-4 4h-2l-2 4h-2l-1 4h-3l-2 4-4 4h-2v2l-4 4-1 2h-3v2l-7 6-2 4h-3l-1 4h-3v2l-7 6-7 8h-2l-2 4h-2v2l-7 6-7 8h-2l-2 4h-2v2l-10 10h-2l-2 4-34 34-7 8-8 8h-3l-1-44 7-8 4-4h2l2-4h2l1-3 8-7 61-61 8-7 7-8h2v-2l4-4h2l2-4 6-6h2v-2l14-14h2l2-4 4-2 2-4 4-2 2-4 6-6h2l2-4h2v-2h2l2-4 53-53 7-8z" fill="#FBFCFC"/>
<path transform="translate(1381,541)" d="m0 0h107v137h-106l-1-1v-46h94l1-1 1-44h-95l-1-1z" fill="#0F28F7"/>
<path transform="translate(4,459)" d="m0 0h2l1 10 10 10 5 4v2h2l4 5 2 1v2h2v2h2v2h2l4 5 28 28 7 6 2 1-1 4-10 9-57 57-4 1-1-1-1-24v-105z" fill="#1029F7"/>
<path transform="translate(0)" d="m0 0 4 1v191l1 27 1 8 5-2-3 4v44l2 1-2 3h-2l-1-2v38l1 8 2-1v47l2 2-4 1-1-3v52l2 1 1 48 2 4-3-1-1-2v-10h-2v124l1 24h2v14l1 32h3l-2 2h-3l-1-4-1 20 1 24 1 7 1 3v43l2 1-3 1-1-3v40l1 8h3l-1 1v32h-8z" fill="#6B65F2"/>
<path transform="translate(50,422)" d="m0 0h5l26 26 6 7 5 4 2 5 4 2 24 24-1 4-3 4h-2v2l-5 4-7 8-3 3-5-1-7-8-12-13-43-43-2-1v-2l-4-1v-3l6-4 5-5z" fill="#112AF7"/>
<path transform="translate(99,375)" d="m0 0h3l7 8 5 4v2l4 2v2l4 2v2l4 2v2l4 2v2l4 2v2l4 2v2l4 2v2l4 2v2l4 2 7 8 10 10 4 3-1 3-4 1v2l-8 7h-2l-2 4-5 4-3 3-5-5-7-6v-2l-4-2-7-8-45-45-4-2 4-4 8-7 10-11z" fill="#1029F7"/>
<path transform="translate(143,327)" d="m0 0 7 1 4 5 23 23 7 8 30 30 4 3-1 3-9 7-13 13-4-1-15-15-7-8-39-39-4-3v-2l-4-1 1-3 5-4h2l2-4 5-5z" fill="#1029F7"/>
<path transform="translate(2,485)" d="m0 0h1l1 98 1 24h2v14l1 32h3l-2 2h-3l-1-4-1 20 1 24 1 7 1 3v43l2 1-3 1-1-3v40l1 8h3l-1 1v32h-8v-215h2z" fill="#716BF2"/>
<path transform="translate(0)" d="m0 0 4 1v191l1 27 1 8 5-2-3 4v44l2 1-2 3h-2l-1-2-1 38h-1l-1-12-1-44h-1z" fill="#6C66F2"/>
<path transform="translate(2,485)" d="m0 0h1l1 98 1 24h2v14l1 32h3l-2 2h-3l-1-4-1 20v24h-1l-1-12v-31h-2v-39h2z" fill="#6D66F2"/>
<path transform="translate(0)" d="m0 0h2l1 225-2 18h-1z" fill="#9FA9F6"/>
<path transform="translate(1,254)" d="m0 0h1l1 47v117l-1 7-2-3v-165z" fill="#A0AAF7"/>
<path transform="translate(1,447)" d="m0 0h1l1 38v121l-1 7h-2v-164z" fill="#9FA9F6"/>
<path transform="translate(3,418)" d="m0 0 4 2 1 48 2 4-3-1-1-2v-10h-2v19l-2-1-1-28h-1v-27z" fill="#706BF2"/>
<path transform="translate(0,652)" d="m0 0h2l1 31v18l-1 5-2-1z" fill="#A0AAF7"/>
<path transform="translate(0,743)" d="m0 0 2 3 1 51-2 4-1-3z" fill="#A0AAF7"/>
</svg>
